<svg id="Capa_1" data-name="Capa 1" xmlns="http://www.w3.org/2000/svg" viewBox="0 0 415.81 523.87"><defs><style>.cls-1{fill:#9d9d9c;}.cls-2{fill:#386fb3;}.cls-3{fill:#009bdd;}.cls-4{fill:#fff;}.cls-5{fill:#c6c6c6;}.cls-6{fill:#ae2c2b;}.cls-7{fill:#9f2826;}.cls-8{fill:#ededed;}.cls-9{fill:#efb54f;}.cls-10{fill:#d75930;}.cls-11{fill:#e69732;}.cls-12{fill:#d4433a;}.cls-13{fill:#b9363d;}.cls-14{fill:#623e1a;}.cls-15{fill:#77512c;}.cls-16,.cls-18{fill:#00934a;}.cls-16{stroke:#296438;}.cls-16,.cls-17{stroke-miterlimit:10;}.cls-17{fill:#296438;stroke:#21552f;}.cls-19{fill:#ffee3b;}.cls-20{fill:#d02e26;}.cls-21{fill:#409e99;}</style></defs><g id="Capa_9" data-name="Capa 9"><g id="Capa_16" data-name="Capa 16"><ellipse class="cls-1" cx="174.45" cy="445.95" rx="174.45" ry="77.92"/><ellipse class="cls-2" cx="317.57" cy="245.36" rx="11.94" ry="17.93"/><ellipse class="cls-2" cx="348.73" cy="248.37" rx="11.94" ry="17.93"/><ellipse class="cls-3" cx="346.16" cy="248.67" rx="9.86" ry="17.93"/><ellipse class="cls-3" cx="315.48" cy="245.72" rx="9.86" ry="17.93"/><path class="cls-4" d="M527.07,328.36c-.43,1-3.47,0-4.58,1.42-1,1.25.56,3.07.29,4.36-.9,4.36-22.21,3.12-36.62,2.62-11.87-.41-37.4-.95-39.53-6-1.14-2.69-.22-4.22-.22-4.22a3.33,3.33,0,0,1,1.69-1.31c20.06-8,33.58-6.1,33.58-6.1,2.15.3,1.41.31,4.47.79,18,2.83,33.24.91,39.22,5.83C525.61,326,527.43,327.5,527.07,328.36Z" transform="translate(-145.18 -111.03)"/><path class="cls-5" d="M530.85,328.36c-.43,1-3.47,0-4.58,1.42-1,1.25.56,3.07.29,4.36-.9,4.36-22.21,3.12-36.62,2.62-11.87-.41-37.4-.95-39.53-6-1.14-2.69-.22-4.22-.22-4.22a3.33,3.33,0,0,1,1.69-1.31c20.06-8,33.58-6.1,33.58-6.1,2.15.3,1.41.31,4.47.79,18,2.83,33.24.91,39.22,5.83C529.38,326,531.21,327.5,530.85,328.36Z" transform="translate(-145.18 -111.03)"/><path class="cls-6" d="M547.15,303.89c24.91,35.69,1.69,91.55-9.6,91.49-11.67-.06-7.67-60.05-41-73.75-20.37-8.37-43.63,11.95-49.39,4.16-4.35-5.88,5.9-20.43,11.57-26.86,4.19-4.75,20.61-21.75,45.67-20.22C529.8,280.28,544.21,299.68,547.15,303.89Z" transform="translate(-145.18 -111.03)"/><path class="cls-7" d="M551.68,305.32c23.14,36.87-2.79,91.52-14.07,90.91-11.72-.63-4.86-61.16-37.36-75.67-20.57-9.19-45.41,5.22-49.54-3-3.17-6.31,9.63-18.44,12.88-21.51,4.68-4.44,21.82-20.7,46.61-18C535.5,280.89,548.94,301,551.68,305.32Z" transform="translate(-145.18 -111.03)"/><circle class="cls-4" cx="391.71" cy="294.75" r="13.89"/><circle class="cls-8" cx="393.24" cy="294.75" r="12.36"/><path class="cls-4" d="M525.37,427.93c-2,.7-8.37-13.19-9.82-12.55s7.52,17.15,2.49,33.88c-1,3.45-3,8-4.71,7.84s-2.06-4.86-5-15.44c-.73-2.66-3.67-13.31-4.65-13.12-.55.1-.32,3.6-.15,6,1.73,26.18,1.19,30.35.16,30.61-2.18.55-6.34-10.17-8.45-9.45-1.22.42-1.5,4.61,0,8.07,2.09,4.82,6.77,6.15,6.33,7.27s-5.28,1.28-9-1.24c-4.91-3.3-5.3-9.54-6.62-9.31-1,.17-1.61,3.68-.95,7.05,1.09,5.55,5.26,8.59,4.8,9.09s-4.38-1.9-8.18-5.67c-4-3.94-5.63-7.28-6.22-7-1.17.6,3.32,10.6,2.4,11.05-1.16.57-9.69-14.95-10.47-14.55s5.62,12.09,4.36,12.87c-1,.61-6.92-5.2-10.06-12.91-1.24-3-1.94-6.13-2.16-6.08-.37.09,2.67,9.19,1.09,10-2.47,1.33-21.16-14.91-22.69-36.55-1.87-26.4,22.64-49,28.57-46.52,2.33,1,1.17,5.52,4.38,7.14,5.11,2.57,10.79-7.62,20.27-8.59,14.67-1.51,27.28,20.22,28.26,21.95C526.12,413.88,527.19,427.28,525.37,427.93Z" transform="translate(-145.18 -111.03)"/><path class="cls-8" d="M521.88,428.7c-1.87.66-7.91-12.47-9.28-11.86-1.52.68,7.11,16.21,2.36,32-1,3.27-2.84,7.57-4.46,7.41s-1.94-4.59-4.7-14.6c-.69-2.52-3.47-12.58-4.4-12.4-.52.1-.3,3.4-.15,5.71,1.64,24.75,1.13,28.69.15,28.94-2.06.52-6-9.62-8-8.93-1.15.4-1.42,4.36,0,7.63,2,4.55,6.4,5.82,6,6.88s-5,1.21-8.53-1.17c-4.64-3.12-5-9-6.26-8.8-.91.16-1.52,3.48-.89,6.67,1,5.25,5,8.12,4.54,8.59s-4.14-1.79-7.73-5.36c-3.75-3.72-5.32-6.88-5.88-6.6-1.11.56,3.13,10,2.27,10.45-1.1.54-9.16-14.14-9.9-13.75s5.32,11.43,4.13,12.17c-.93.58-6.54-4.92-9.51-12.2-1.17-2.87-1.84-5.79-2-5.74s2.52,8.68,1,9.49c-2.34,1.26-20-14.1-21.45-34.55-1.77-25,21.4-46.29,27-44,2.2.91,1.1,5.22,4.14,6.75,4.84,2.43,10.2-7.2,19.16-8.12,13.87-1.43,25.79,19.12,26.72,20.75C522.6,415.42,523.61,428.09,521.88,428.7Z" transform="translate(-145.18 -111.03)"/></g><ellipse class="cls-9" cx="430.81" cy="506.82" rx="4.36" ry="4.97" transform="translate(-283.07 740.82) rotate(-80.88)"/><ellipse class="cls-10" cx="431.71" cy="506.26" rx="3.68" ry="4.19" transform="translate(-281.75 741.24) rotate(-80.88)"/><ellipse class="cls-11" cx="285.49" cy="397.85" rx="6.46" ry="2.34"/><ellipse class="cls-10" cx="432.93" cy="508.45" rx="1.8" ry="4.97" transform="translate(-282.89 744.3) rotate(-80.88)"/><circle class="cls-12" cx="285.49" cy="413.95" r="16.1"/><path class="cls-13" d="M446.76,524.26a16.29,16.29,0,0,1-5.95,13c-2.89,2.37-7.75,4.52-9.28,2.95-1.79-1.84,3.5-6.53,3.76-14.87.31-10-5.24-15.72-3.76-17C433.52,506.66,446.24,513.61,446.76,524.26Z" transform="translate(-145.18 -111.03)"/><path class="cls-4" d="M446.78,525c-1.12.69-4.48-2.69-6-1.54-.36.27-.43.65-1,.9a3.08,3.08,0,0,1-2.46-.29c-3.17-1.47-3.65-2.56-5.53-3.19s-4.85-.62-6.22.88c-.91,1-.66,2.1-1.57,2.47s-1.82-.78-3.35-1.14c-3.08-.71-5.4,2.85-6.39,2.21-1.19-.76,0-7.23,4.48-11.61a17.76,17.76,0,0,1,11.92-4.8c1.38,0,7.41-.14,12,4.26S448.08,524.18,446.78,525Z" transform="translate(-145.18 -111.03)"/><path class="cls-8" d="M446.78,525c-1.12.69-4.48-2.69-6-1.54-.36.27-.43.65-1,.9a3.08,3.08,0,0,1-2.46-.29c-3.09-1.43-4.67-2.06-5.53-3.19-1.27-1.69-.49-2.42-1.78-6.09-1.21-3.47-2.33-4.06-1.95-4.87.87-1.86,9.34-1.67,14.56,3.24C447.2,517.43,448.07,524.19,446.78,525Z" transform="translate(-145.18 -111.03)"/><ellipse class="cls-9" cx="198.07" cy="514.12" rx="4.36" ry="4.97" transform="translate(-486.13 517.17) rotate(-80.88)"/><ellipse class="cls-10" cx="198.98" cy="513.56" rx="3.68" ry="4.19" transform="translate(-484.81 517.59) rotate(-80.88)"/><ellipse class="cls-11" cx="52.75" cy="405.14" rx="6.46" ry="2.34"/><ellipse class="cls-10" cx="200.2" cy="515.75" rx="1.8" ry="4.97" transform="matrix(0.16, -0.99, 0.99, 0.16, -485.95, 520.65)"/><circle class="cls-12" cx="52.75" cy="421.24" r="16.1"/><path class="cls-13" d="M214,531.55a16.29,16.29,0,0,1-6,13c-2.89,2.37-7.75,4.52-9.28,3-1.79-1.84,3.5-6.53,3.76-14.87.31-10-5.24-15.72-3.76-17C200.78,514,213.51,520.9,214,531.55Z" transform="translate(-145.18 -111.03)"/><path class="cls-4" d="M214,532.27c-1.12.69-4.48-2.69-6-1.54-.36.27-.43.65-1,.9a3.08,3.08,0,0,1-2.46-.29c-3.17-1.47-3.65-2.56-5.53-3.19s-4.85-.62-6.22.88c-.91,1-.66,2.1-1.57,2.47s-1.82-.78-3.35-1.14c-3.08-.71-5.4,2.85-6.39,2.21-1.19-.76,0-7.23,4.48-11.61a17.76,17.76,0,0,1,11.92-4.8c1.38,0,7.41-.14,12,4.26S215.34,531.47,214,532.27Z" transform="translate(-145.18 -111.03)"/><path class="cls-8" d="M214,532.27c-1.12.69-4.48-2.69-6-1.54-.36.27-.43.65-1,.9a3.08,3.08,0,0,1-2.46-.29c-3.09-1.43-4.67-2.06-5.53-3.19-1.27-1.69-.49-2.42-1.78-6.09-1.21-3.47-2.33-4.06-1.95-4.87.87-1.86,9.34-1.67,14.56,3.24C214.46,524.72,215.33,531.48,214,532.27Z" transform="translate(-145.18 -111.03)"/><rect class="cls-14" x="120.89" y="344.52" width="93.65" height="155.13"/><rect class="cls-15" x="120.89" y="344.52" width="27.87" height="155.13"/><path class="cls-16" d="M469.52,485c3.7,9.61,8.35,22.17,2.13,31.24-4.26,6.21-12.81,9.62-20.51,9.16-17.23-1-24.15-21-34.63-18.25-5.35,1.41-4.48,6.22-12.66,13.21-.69.59-11.91,9.92-24.84,7.29-10.51-2.14-10.95-9.9-25.57-16.31-6.54-2.87-12.27-5.29-19.09-4.19-12.89,2.08-13.21,14.23-28.51,20-3.78,1.42-14.19,4.61-24.33.51-7-2.82-13.26-11-19.77-18.64-9.91-11.58-9.56-14.5-13.3-15.38-8.54-2-11.24,13.09-27.61,21.9a39.27,39.27,0,0,1-8.42,3.38c-3.73,1-9.1,2.55-15.44,1.28A27.52,27.52,0,0,1,181,510.08a26.37,26.37,0,0,1-4.53-19.28,109.58,109.58,0,0,1,12.61-24.23c7.16-10.2,11.88-12.61,17.73-20.5C217.14,432.18,220,416,221.51,410.19c4.69-18.43,25.3-50.5,93.74-110.45,25.35,23,73,67.86,99.68,105.17,11.47,16,14,23.65,29.67,42.76C454.6,459.93,463.23,468.66,469.52,485Z" transform="translate(-145.18 -111.03)"/><ellipse class="cls-9" cx="241.49" cy="489.06" rx="4.36" ry="4.97" transform="translate(-424.84 538.95) rotate(-80.88)"/><ellipse class="cls-10" cx="242.39" cy="488.49" rx="3.68" ry="4.19" transform="translate(-423.53 539.37) rotate(-80.88)"/><ellipse class="cls-11" cx="96.17" cy="380.08" rx="6.46" ry="2.34"/><ellipse class="cls-10" cx="243.62" cy="490.69" rx="1.8" ry="4.97" transform="translate(-424.66 542.43) rotate(-80.88)"/><circle class="cls-12" cx="96.17" cy="396.18" r="16.1"/><path class="cls-13" d="M257.44,506.49a16.29,16.29,0,0,1-5.95,13c-2.89,2.37-7.75,4.52-9.28,2.95-1.79-1.84,3.5-6.53,3.76-14.87.31-10-5.24-15.72-3.76-17C244.2,488.89,256.93,495.83,257.44,506.49Z" transform="translate(-145.18 -111.03)"/><path class="cls-4" d="M257.46,507.21c-1.12.69-4.48-2.69-6-1.54-.36.27-.43.65-1,.9a3.08,3.08,0,0,1-2.46-.29c-3.17-1.47-3.65-2.56-5.53-3.19s-4.85-.62-6.22.88c-.91,1-.66,2.1-1.57,2.47s-1.82-.78-3.35-1.14c-3.08-.71-5.4,2.85-6.39,2.21-1.19-.76,0-7.23,4.48-11.61a17.76,17.76,0,0,1,11.92-4.8c1.38,0,7.41-.14,12,4.26S258.76,506.41,257.46,507.21Z" transform="translate(-145.18 -111.03)"/><path class="cls-8" d="M257.46,507.21c-1.12.69-4.48-2.69-6-1.54-.36.27-.43.65-1,.9a3.08,3.08,0,0,1-2.46-.29c-3.09-1.43-4.67-2.06-5.53-3.19-1.27-1.69-.49-2.42-1.78-6.09-1.21-3.47-2.33-4.06-2-4.87.87-1.86,9.34-1.67,14.56,3.24C257.88,499.66,258.75,506.42,257.46,507.21Z" transform="translate(-145.18 -111.03)"/><path class="cls-17" d="M469.52,485c3.7,9.61,8.35,22.17,2.13,31.24-4.26,6.21-12.81,9.62-20.51,9.16-17.23-1-24.15-21-34.63-18.25-5.35,1.41-4.48,6.22-12.66,13.21-.69.59-11.91,9.92-24.84,7.29-10.51-2.14-10.95-9.9-25.57-16.31-6.54-2.87-12.27-5.29-19.09-4.19-12.89,2.08-13.21,14.23-28.51,20-2.17.82-12.71,4.55-24.33.51a36.37,36.37,0,0,1-22.58-24.29c-4.88-19,11.1-38.21,15.49-43.85,17.46-22.43,35.72-66.29,40.83-159.72,25.35,23,73,67.86,99.68,105.17,11.47,16,14,23.65,29.67,42.76C454.6,459.93,463.23,468.66,469.52,485Z" transform="translate(-145.18 -111.03)"/><ellipse class="cls-9" cx="397.33" cy="440.59" rx="4.36" ry="4.97" transform="translate(-245.84 652.04) rotate(-80.88)"/><ellipse class="cls-10" cx="398.23" cy="440.03" rx="3.68" ry="4.19" transform="translate(-244.53 652.45) rotate(-80.88)"/><ellipse class="cls-11" cx="252.02" cy="331.62" rx="6.46" ry="2.34"/><ellipse class="cls-10" cx="399.46" cy="442.23" rx="1.8" ry="4.97" transform="translate(-245.68 655.52) rotate(-80.88)"/><circle class="cls-12" cx="252.02" cy="347.72" r="16.1"/><path class="cls-13" d="M413.29,458a16.29,16.29,0,0,1-6,13c-2.89,2.37-7.75,4.52-9.28,2.95-1.79-1.84,3.5-6.53,3.76-14.87.31-10-5.24-15.72-3.76-17C400.05,440.43,412.77,447.38,413.29,458Z" transform="translate(-145.18 -111.03)"/><path class="cls-4" d="M413.31,458.75c-1.12.69-4.48-2.69-6-1.54-.36.27-.43.65-1,.9a3.08,3.08,0,0,1-2.46-.29c-3.17-1.47-3.65-2.56-5.53-3.19s-4.85-.62-6.22.88c-.91,1-.66,2.1-1.57,2.47s-1.82-.78-3.35-1.14c-3.08-.71-5.4,2.85-6.39,2.21-1.19-.76,0-7.23,4.48-11.61a17.76,17.76,0,0,1,11.92-4.8c1.38,0,7.41-.14,12,4.26S414.61,458,413.31,458.75Z" transform="translate(-145.18 -111.03)"/><path class="cls-8" d="M413.31,458.75c-1.12.69-4.48-2.69-6-1.54-.36.27-.43.65-1,.9a3.08,3.08,0,0,1-2.46-.29c-3.09-1.43-4.67-2.06-5.53-3.19-1.27-1.69-.49-2.42-1.78-6.09-1.21-3.47-2.33-4.06-1.95-4.87.87-1.86,9.34-1.67,14.56,3.24C413.73,451.2,414.6,458,413.31,458.75Z" transform="translate(-145.18 -111.03)"/><ellipse class="cls-9" cx="336.59" cy="511.49" rx="4.36" ry="4.97" transform="translate(-366.96 651.72) rotate(-80.88)"/><ellipse class="cls-10" cx="337.49" cy="510.91" rx="3.68" ry="4.19" transform="translate(-365.63 652.13) rotate(-80.88)"/><ellipse class="cls-11" cx="191.28" cy="402.51" rx="6.46" ry="2.34"/><ellipse class="cls-10" cx="338.72" cy="513.12" rx="1.8" ry="4.97" transform="translate(-366.78 655.2) rotate(-80.88)"/><circle class="cls-12" cx="191.28" cy="418.61" r="16.1"/><path class="cls-13" d="M352.54,528.92a16.29,16.29,0,0,1-6,13c-2.89,2.37-7.75,4.52-9.28,3-1.79-1.84,3.5-6.53,3.76-14.87.31-10-5.24-15.72-3.76-17C339.3,511.32,352,518.26,352.54,528.92Z" transform="translate(-145.18 -111.03)"/><path class="cls-4" d="M352.56,529.64c-1.12.69-4.48-2.69-6-1.54-.36.27-.43.65-1,.9a3.08,3.08,0,0,1-2.46-.29c-3.17-1.47-3.65-2.56-5.53-3.19s-4.85-.62-6.22.88c-.91,1-.66,2.1-1.57,2.47s-1.82-.78-3.35-1.14c-3.08-.71-5.4,2.85-6.39,2.21-1.19-.76,0-7.23,4.48-11.61a17.76,17.76,0,0,1,11.92-4.8c1.38,0,7.41-.14,12,4.26S353.86,528.84,352.56,529.64Z" transform="translate(-145.18 -111.03)"/><path class="cls-8" d="M352.56,529.64c-1.12.69-4.48-2.69-6-1.54-.36.27-.43.65-1,.9a3.08,3.08,0,0,1-2.46-.29c-3.09-1.43-4.67-2.06-5.53-3.19-1.27-1.69-.49-2.42-1.78-6.09-1.21-3.47-2.33-4.06-1.95-4.87.87-1.86,9.34-1.67,14.56,3.24C353,522.09,353.85,528.85,352.56,529.64Z" transform="translate(-145.18 -111.03)"/><ellipse class="cls-9" cx="472.69" cy="437.72" rx="4.36" ry="4.97" transform="translate(-179.6 724.03) rotate(-80.88)"/><ellipse class="cls-10" cx="473.59" cy="437.15" rx="3.68" ry="4.19" transform="translate(-178.28 724.44) rotate(-80.88)"/><ellipse class="cls-11" cx="327.38" cy="328.75" rx="6.46" ry="2.34"/><ellipse class="cls-10" cx="474.82" cy="439.36" rx="1.8" ry="4.97" transform="translate(-179.42 727.51) rotate(-80.88)"/><circle class="cls-12" cx="327.38" cy="344.85" r="16.1"/><path class="cls-13" d="M488.64,455.16a16.29,16.29,0,0,1-5.95,13c-2.89,2.37-7.75,4.52-9.28,2.95-1.79-1.84,3.5-6.53,3.76-14.87.31-10-5.24-15.72-3.76-17C475.4,437.56,488.13,444.51,488.64,455.16Z" transform="translate(-145.18 -111.03)"/><path class="cls-4" d="M488.66,455.88c-1.12.69-4.48-2.69-6-1.54-.36.27-.43.65-1,.9a3.08,3.08,0,0,1-2.46-.29c-3.17-1.47-3.65-2.56-5.53-3.19s-4.85-.62-6.22.88c-.91,1-.66,2.1-1.57,2.47s-1.82-.78-3.35-1.14c-3.08-.71-5.4,2.85-6.39,2.21-1.19-.76,0-7.23,4.48-11.61a17.76,17.76,0,0,1,11.92-4.8c1.38,0,7.41-.14,12,4.26S490,455.08,488.66,455.88Z" transform="translate(-145.18 -111.03)"/><path class="cls-8" d="M488.66,455.88c-1.12.69-4.48-2.69-6-1.54-.36.27-.43.65-1,.9a3.08,3.08,0,0,1-2.46-.29c-3.09-1.43-4.67-2.06-5.53-3.19-1.27-1.69-.49-2.42-1.78-6.09-1.21-3.47-2.33-4.06-2-4.87.87-1.86,9.34-1.67,14.56,3.24C489.08,448.33,490,455.09,488.66,455.88Z" transform="translate(-145.18 -111.03)"/><ellipse class="cls-9" cx="215.66" cy="424.04" rx="4.36" ry="4.97" transform="translate(-382.38 458.74) rotate(-80.88)"/><ellipse class="cls-10" cx="216.56" cy="423.48" rx="3.68" ry="4.19" transform="translate(-381.07 459.16) rotate(-80.88)"/><ellipse class="cls-11" cx="70.35" cy="315.06" rx="6.46" ry="2.34"/><ellipse class="cls-10" cx="217.79" cy="425.69" rx="1.8" ry="4.97" transform="translate(-382.22 462.23) rotate(-80.88)"/><circle class="cls-12" cx="70.35" cy="331.17" r="16.1"/><path class="cls-13" d="M231.62,441.48a16.29,16.29,0,0,1-6,13c-2.89,2.37-7.75,4.52-9.28,2.95-1.79-1.84,3.5-6.53,3.76-14.87.31-10-5.24-15.72-3.76-17C218.38,423.88,231.1,430.82,231.62,441.48Z" transform="translate(-145.18 -111.03)"/><path class="cls-4" d="M231.63,442.2c-1.12.69-4.48-2.69-6-1.54-.36.27-.43.65-1,.9a3.08,3.08,0,0,1-2.46-.29c-3.17-1.47-3.65-2.56-5.53-3.19s-4.85-.62-6.22.88c-.91,1-.66,2.1-1.57,2.47s-1.82-.78-3.35-1.14c-3.08-.71-5.4,2.85-6.39,2.21-1.19-.76,0-7.23,4.48-11.61a17.76,17.76,0,0,1,11.92-4.8c1.38,0,7.41-.14,12,4.26S232.93,441.4,231.63,442.2Z" transform="translate(-145.18 -111.03)"/><path class="cls-8" d="M231.63,442.2c-1.12.69-4.48-2.69-6-1.54-.36.27-.43.65-1,.9a3.08,3.08,0,0,1-2.46-.29c-3.09-1.43-4.67-2.06-5.53-3.19-1.27-1.69-.49-2.42-1.78-6.09-1.21-3.47-2.33-4.06-1.95-4.87.87-1.86,9.34-1.67,14.56,3.24C232.06,434.65,232.92,441.41,231.63,442.2Z" transform="translate(-145.18 -111.03)"/><ellipse class="cls-9" cx="325.66" cy="435.76" rx="4.36" ry="4.97" transform="translate(-301.38 577.21) rotate(-80.88)"/><ellipse class="cls-10" cx="326.57" cy="435.2" rx="3.68" ry="4.19" transform="translate(-300.07 577.63) rotate(-80.88)"/><ellipse class="cls-11" cx="180.35" cy="326.78" rx="6.46" ry="2.34"/><ellipse class="cls-10" cx="327.79" cy="437.4" rx="1.8" ry="4.97" transform="translate(-301.22 580.7) rotate(-80.88)"/><circle class="cls-12" cx="180.35" cy="342.89" r="16.1"/><path class="cls-13" d="M341.62,453.2a16.29,16.29,0,0,1-5.95,13c-2.89,2.37-7.75,4.52-9.28,2.95-1.79-1.84,3.5-6.53,3.76-14.87.31-10-5.24-15.72-3.76-17C328.38,435.6,341.1,442.54,341.62,453.2Z" transform="translate(-145.18 -111.03)"/><path class="cls-4" d="M341.64,453.92c-1.12.69-4.48-2.69-6-1.54-.36.27-.43.65-1,.9a3.08,3.08,0,0,1-2.46-.29c-3.17-1.47-3.65-2.56-5.53-3.19s-4.85-.62-6.22.88c-.91,1-.66,2.1-1.57,2.47s-1.82-.78-3.35-1.14c-3.08-.71-5.4,2.85-6.39,2.21-1.19-.76,0-7.23,4.48-11.61a17.76,17.76,0,0,1,11.92-4.8c1.38,0,7.41-.14,12,4.26S342.94,453.12,341.64,453.92Z" transform="translate(-145.18 -111.03)"/><path class="cls-8" d="M341.64,453.92c-1.12.69-4.48-2.69-6-1.54-.36.27-.43.65-1,.9a3.08,3.08,0,0,1-2.46-.29c-3.09-1.43-4.67-2.06-5.53-3.19-1.27-1.69-.49-2.42-1.78-6.09-1.21-3.47-2.33-4.06-1.95-4.87.87-1.86,9.34-1.67,14.56,3.24C342.06,446.37,342.93,453.13,341.64,453.92Z" transform="translate(-145.18 -111.03)"/><ellipse class="cls-9" cx="216.76" cy="284.81" rx="4.36" ry="4.97" transform="translate(-243.99 342.67) rotate(-80.88)"/><ellipse class="cls-10" cx="217.67" cy="284.24" rx="3.68" ry="4.19" transform="translate(-242.66 343.08) rotate(-80.88)"/><ellipse class="cls-11" cx="71.46" cy="175.83" rx="6.46" ry="2.34"/><ellipse class="cls-10" cx="218.89" cy="286.45" rx="1.8" ry="4.97" transform="translate(-243.81 346.15) rotate(-80.88)"/><circle class="cls-12" cx="71.46" cy="191.93" r="16.1"/><path class="cls-13" d="M232.73,302.24a16.29,16.29,0,0,1-5.95,13c-2.89,2.37-7.75,4.52-9.28,3-1.79-1.84,3.5-6.53,3.76-14.87.31-10-5.24-15.72-3.76-17C219.48,284.64,232.21,291.58,232.73,302.24Z" transform="translate(-145.18 -111.03)"/><path class="cls-4" d="M232.74,303c-1.12.69-4.48-2.69-6-1.54-.36.27-.43.65-1,.9a3.08,3.08,0,0,1-2.46-.29c-3.17-1.47-3.65-2.56-5.53-3.19s-4.85-.62-6.22.88c-.91,1-.66,2.1-1.57,2.47s-1.82-.78-3.35-1.14c-3.08-.71-5.4,2.85-6.39,2.21-1.19-.76,0-7.23,4.48-11.61a17.76,17.76,0,0,1,11.92-4.8c1.38,0,7.41-.14,12,4.26S234,302.16,232.74,303Z" transform="translate(-145.18 -111.03)"/><path class="cls-8" d="M232.74,303c-1.12.69-4.48-2.69-6-1.54-.36.27-.43.65-1,.9a3.08,3.08,0,0,1-2.46-.29c-3.09-1.43-4.67-2.06-5.53-3.19-1.27-1.69-.49-2.42-1.78-6.09-1.21-3.47-2.33-4.06-2-4.87.87-1.86,9.34-1.67,14.56,3.24C233.17,295.41,234,302.17,232.74,303Z" transform="translate(-145.18 -111.03)"/><path class="cls-16" d="M468.93,420.28c.46.69,7.89,12,4.91,20s-14.16,7.92-21.17,5.85c-16.55-4.9-17.73-24.31-30.62-25.91-10.62-1.32-12.47,12-25.32,11.77s-16-13.83-27.22-11.86c-8.5,1.49-8.44,9.55-20,13.81-9.33,3.43-17.54,1.22-21.33.14-11.78-3.35-11.61-9.31-23.27-14.05-2.8-1.14-16.9-6.53-31.75-.05-8.12,3.54-6.95,6.49-16.25,10.56-5.85,2.56-16.64,7.28-26.84,2-8.77-4.59-8.33-12-14-12.6-10.3-1-13.51,23.49-28,26.25a16.18,16.18,0,0,1-17.39-9.26c-2.85-6.37-1.21-13.53-.62-15.74a191.23,191.23,0,0,1,19.48-30.7c1.88-2.4,3.69-4.58,16.51-19.08,9.23-10.44,13.85-15.67,19-21.37,9.23-10.26,31.25-38.43,85.9-114.39,62.2,86.75,92.32,118.42,108,129.1a145,145,0,0,1,26.48,22.84A174.52,174.52,0,0,1,468.93,420.28Z" transform="translate(-145.18 -111.03)"/><path class="cls-17" d="M474.27,425c1.8,5.8,3.86,12.81.25,18.13-4,5.94-13.81,8-21.17,5.85-16.55-4.9-17.73-24.31-30.62-25.91-10.62-1.32-12.47,12-25.32,11.77S381.43,421,370.19,423c-8.5,1.49-8.44,9.55-20,13.81-9.33,3.43-17.54,1.22-21.33.14a41.16,41.16,0,0,1-6.59-2.72c-15.16-6.53-26.34,5.81-42.8,1.94-12.38-2.91-19.26-13-20.51-14.84s-9.19-13.47-5.67-25.75c1.54-5.36,4.41-7.9,14.4-17.89,6.62-6.62,12.8-13.68,19.64-20.07,9.44-8.83,19.78-36.7,24.31-119.18,35.62,57.26,60.1,82.73,76.44,95.18a475.81,475.81,0,0,1,37.92,32c6.41,6,11.93,11.85,23,23.56C464.06,405.22,470.61,413.21,474.27,425Z" transform="translate(-145.18 -111.03)"/><ellipse class="cls-9" cx="337.69" cy="355.26" rx="4.36" ry="4.97" transform="translate(-211.78 521.35) rotate(-80.88)"/><ellipse class="cls-10" cx="338.59" cy="354.7" rx="3.68" ry="4.19" transform="translate(-210.47 521.77) rotate(-80.88)"/><ellipse class="cls-11" cx="192.38" cy="246.29" rx="6.46" ry="2.34"/><ellipse class="cls-10" cx="339.82" cy="356.9" rx="1.8" ry="4.97" transform="translate(-211.61 524.83) rotate(-80.88)"/><circle class="cls-12" cx="192.38" cy="262.39" r="16.1"/><path class="cls-13" d="M353.65,372.7a16.29,16.29,0,0,1-5.95,13c-2.89,2.37-7.75,4.52-9.28,2.95-1.79-1.84,3.5-6.53,3.76-14.87.31-10-5.24-15.72-3.76-17C340.41,355.1,353.14,362,353.65,372.7Z" transform="translate(-145.18 -111.03)"/><path class="cls-4" d="M353.67,373.42c-1.12.69-4.48-2.69-6-1.54-.36.27-.43.65-1,.9a3.08,3.08,0,0,1-2.46-.29c-3.17-1.47-3.65-2.56-5.53-3.19s-4.85-.62-6.22.88c-.91,1-.66,2.1-1.57,2.47s-1.82-.78-3.35-1.14c-3.08-.71-5.4,2.85-6.39,2.21-1.19-.76,0-7.23,4.48-11.61a17.76,17.76,0,0,1,11.92-4.8c1.38,0,7.41-.14,12,4.26S355,372.62,353.67,373.42Z" transform="translate(-145.18 -111.03)"/><path class="cls-8" d="M353.67,373.42c-1.12.69-4.48-2.69-6-1.54-.36.27-.43.65-1,.9a3.08,3.08,0,0,1-2.46-.29c-3.09-1.43-4.67-2.06-5.53-3.19-1.27-1.69-.49-2.42-1.78-6.09-1.21-3.47-2.33-4.06-1.95-4.87.87-1.86,9.34-1.67,14.56,3.24C354.09,365.87,355,372.63,353.67,373.42Z" transform="translate(-145.18 -111.03)"/><ellipse class="cls-9" cx="410.53" cy="344.7" rx="4.36" ry="4.97" transform="translate(-140.06 584.38) rotate(-80.88)"/><ellipse class="cls-10" cx="411.43" cy="344.14" rx="3.68" ry="4.19" transform="translate(-138.74 584.79) rotate(-80.88)"/><ellipse class="cls-11" cx="265.22" cy="235.73" rx="6.46" ry="2.34"/><ellipse class="cls-10" cx="412.66" cy="346.34" rx="1.8" ry="4.97" transform="matrix(0.16, -0.99, 0.99, 0.16, -139.89, 587.86)"/><circle class="cls-12" cx="265.22" cy="251.83" r="16.1"/><path class="cls-13" d="M426.49,362.14a16.29,16.29,0,0,1-5.95,13c-2.89,2.37-7.75,4.52-9.28,2.95-1.79-1.84,3.5-6.53,3.76-14.87.31-10-5.24-15.72-3.76-17C413.25,344.54,426,351.48,426.49,362.14Z" transform="translate(-145.18 -111.03)"/><path class="cls-4" d="M426.51,362.86c-1.12.69-4.48-2.69-6-1.54-.36.27-.43.65-1,.9a3.08,3.08,0,0,1-2.46-.29c-3.17-1.47-3.65-2.56-5.53-3.19s-4.85-.62-6.22.88c-.91,1-.66,2.1-1.57,2.47s-1.82-.78-3.35-1.14c-3.08-.71-5.4,2.85-6.39,2.21-1.19-.76,0-7.23,4.48-11.61a17.76,17.76,0,0,1,11.92-4.8c1.38,0,7.41-.14,12,4.26S427.81,362.06,426.51,362.86Z" transform="translate(-145.18 -111.03)"/><path class="cls-8" d="M426.51,362.86c-1.12.69-4.48-2.69-6-1.54-.36.27-.43.65-1,.9a3.08,3.08,0,0,1-2.46-.29c-3.09-1.43-4.67-2.06-5.53-3.19-1.27-1.69-.49-2.42-1.78-6.09-1.21-3.47-2.33-4.06-1.95-4.87.87-1.86,9.34-1.67,14.56,3.24C426.93,355.31,427.8,362.07,426.51,362.86Z" transform="translate(-145.18 -111.03)"/><ellipse class="cls-9" cx="257.67" cy="341.25" rx="4.36" ry="4.97" transform="translate(-265.29 430.55) rotate(-80.88)"/><ellipse class="cls-10" cx="258.58" cy="340.68" rx="3.68" ry="4.19" transform="translate(-263.96 430.97) rotate(-80.88)"/><ellipse class="cls-11" cx="112.37" cy="232.27" rx="6.46" ry="2.34"/><ellipse class="cls-10" cx="259.8" cy="342.89" rx="1.8" ry="4.97" transform="translate(-265.11 434.03) rotate(-80.88)"/><circle class="cls-12" cx="112.37" cy="248.37" r="16.1"/><path class="cls-13" d="M273.64,358.69a16.29,16.29,0,0,1-5.95,13c-2.89,2.37-7.75,4.52-9.28,2.95-1.79-1.84,3.5-6.53,3.76-14.87.31-10-5.24-15.72-3.76-17C260.39,341.09,273.12,348,273.64,358.69Z" transform="translate(-145.18 -111.03)"/><path class="cls-4" d="M273.65,359.4c-1.12.69-4.48-2.69-6-1.54-.36.27-.43.65-1,.9a3.08,3.08,0,0,1-2.46-.29c-3.17-1.47-3.65-2.56-5.53-3.19s-4.85-.62-6.22.88c-.91,1-.66,2.1-1.57,2.47s-1.82-.78-3.35-1.14c-3.08-.71-5.4,2.85-6.39,2.21-1.19-.76,0-7.23,4.48-11.61a17.76,17.76,0,0,1,11.92-4.8c1.38,0,7.41-.14,12,4.26S275,358.61,273.65,359.4Z" transform="translate(-145.18 -111.03)"/><path class="cls-8" d="M273.65,359.4c-1.12.69-4.48-2.69-6-1.54-.36.27-.43.65-1,.9a3.08,3.08,0,0,1-2.46-.29c-3.09-1.43-4.67-2.06-5.53-3.19-1.27-1.69-.49-2.42-1.78-6.09-1.21-3.47-2.33-4.06-1.95-4.87.87-1.86,9.34-1.67,14.56,3.24C274.07,351.85,274.94,358.61,273.65,359.4Z" transform="translate(-145.18 -111.03)"/><path class="cls-16" d="M435.5,330.79c.36.48,6.23,8.34,3.88,13.87s-11.18,5.5-16.71,4.06c-13.07-3.4-14-16.87-24.17-18-8.39-.91-9.85,8.35-20,8.17s-12.62-9.6-21.49-8.23c-6.71,1-6.66,6.63-15.81,9.58a30,30,0,0,1-16.84.1c-9.3-2.33-9.17-6.46-18.38-9.75-2.21-.79-13.34-4.53-25.07,0-6.41,2.46-5.49,4.5-12.83,7.33-4.62,1.78-13.14,5.05-21.19,1.35-6.93-3.19-6.58-8.35-11-8.74-8.13-.71-10.66,16.3-22.08,18.21-4.82.81-11.56-1-13.73-6.43-2.05-5.11,1-10.89,1.49-11.84l15.87-18.58,14.09-16.49,79.26-92.78Q373.12,266.71,435.5,330.79Z" transform="translate(-145.18 -111.03)"/><path class="cls-17" d="M442.91,339.52c.36.48,6.23,8.34,3.88,13.87s-11.18,5.5-16.71,4.06c-13.07-3.4-14-16.87-24.17-18-8.39-.91-9.85,8.35-20,8.17s-12.62-9.6-21.49-8.23c-6.71,1-6.66,6.63-15.81,9.58a30,30,0,0,1-16.84.1c-9.3-2.33-9.17-6.46-18.38-9.75-10.76-3.85-19.09,4.35-25.07,0-7.18-5.27-2.89-26.25,5.95-41.76C300.8,286.11,308.44,280,311.64,277c12.05-11.59,20.49-37.64,3.63-101.56Q379.1,257.47,442.91,339.52Z" transform="translate(-145.18 -111.03)"/><ellipse class="cls-9" cx="414.06" cy="287.43" rx="4.36" ry="4.97" transform="translate(-80.55 539.68) rotate(-80.88)"/><ellipse class="cls-10" cx="414.96" cy="286.86" rx="3.68" ry="4.19" transform="translate(-79.22 540.08) rotate(-80.88)"/><ellipse class="cls-11" cx="268.76" cy="178.46" rx="6.46" ry="2.34"/><ellipse class="cls-10" cx="416.19" cy="289.07" rx="1.8" ry="4.97" transform="translate(-80.37 543.15) rotate(-80.88)"/><circle class="cls-12" cx="268.76" cy="194.56" r="16.1"/><path class="cls-13" d="M430,304.87a16.29,16.29,0,0,1-5.95,13c-2.89,2.37-7.75,4.52-9.28,3-1.79-1.84,3.5-6.53,3.76-14.87.31-10-5.24-15.72-3.76-17C416.78,287.27,429.51,294.21,430,304.87Z" transform="translate(-145.18 -111.03)"/><path class="cls-4" d="M430,305.59c-1.12.69-4.48-2.69-6-1.54-.36.27-.43.65-1,.9a3.08,3.08,0,0,1-2.46-.29c-3.17-1.47-3.65-2.56-5.53-3.19s-4.85-.62-6.22.88c-.91,1-.66,2.1-1.57,2.47s-1.82-.78-3.35-1.14c-3.08-.71-5.4,2.85-6.39,2.21-1.19-.76,0-7.23,4.48-11.61a17.76,17.76,0,0,1,11.92-4.8c1.38,0,7.41-.14,12,4.26S431.34,304.79,430,305.59Z" transform="translate(-145.18 -111.03)"/><path class="cls-8" d="M430,305.59c-1.12.69-4.48-2.69-6-1.54-.36.27-.43.65-1,.9a3.08,3.08,0,0,1-2.46-.29c-3.09-1.43-4.67-2.06-5.53-3.19-1.27-1.69-.49-2.42-1.78-6.09-1.21-3.47-2.33-4.06-2-4.87.87-1.86,9.34-1.67,14.56,3.24C430.46,298,431.33,304.8,430,305.59Z" transform="translate(-145.18 -111.03)"/><ellipse class="cls-9" cx="299.57" cy="269.88" rx="4.36" ry="4.97" transform="translate(-159.56 411.86) rotate(-80.88)"/><ellipse class="cls-10" cx="300.47" cy="269.3" rx="3.68" ry="4.19" transform="translate(-158.23 412.26) rotate(-80.88)"/><ellipse class="cls-11" cx="154.26" cy="160.89" rx="6.46" ry="2.34"/><ellipse class="cls-10" cx="301.69" cy="271.51" rx="1.8" ry="4.97" transform="matrix(0.16, -0.99, 0.99, 0.16, -159.39, 415.32)"/><circle class="cls-12" cx="154.26" cy="177" r="16.1"/><path class="cls-13" d="M315.53,287.31a16.29,16.29,0,0,1-5.95,13c-2.89,2.37-7.75,4.52-9.28,3-1.79-1.84,3.5-6.53,3.76-14.87.31-10-5.24-15.72-3.76-17C302.28,269.71,315,276.65,315.53,287.31Z" transform="translate(-145.18 -111.03)"/><path class="cls-4" d="M315.54,288c-1.12.69-4.48-2.69-6-1.54-.36.27-.43.65-1,.9a3.08,3.08,0,0,1-2.46-.29c-3.17-1.47-3.65-2.56-5.53-3.19s-4.85-.62-6.22.88c-.91,1-.66,2.1-1.57,2.47s-1.82-.78-3.35-1.14c-3.08-.71-5.4,2.85-6.39,2.21-1.19-.76,0-7.23,4.48-11.61a17.76,17.76,0,0,1,11.92-4.8c1.38,0,7.41-.14,12,4.26S316.84,287.23,315.54,288Z" transform="translate(-145.18 -111.03)"/><path class="cls-8" d="M315.54,288c-1.12.69-4.48-2.69-6-1.54-.36.27-.43.65-1,.9a3.08,3.08,0,0,1-2.46-.29c-3.09-1.43-4.67-2.06-5.53-3.19-1.27-1.69-.49-2.42-1.78-6.09-1.21-3.47-2.33-4.06-2-4.87.87-1.86,9.34-1.67,14.56,3.24C316,280.47,316.83,287.23,315.54,288Z" transform="translate(-145.18 -111.03)"/><ellipse class="cls-9" cx="362.61" cy="282.77" rx="4.36" ry="4.97" transform="translate(-119.24 484.95) rotate(-80.88)"/><ellipse class="cls-10" cx="363.51" cy="282.21" rx="3.68" ry="4.19" transform="translate(-117.93 485.36) rotate(-80.88)"/><ellipse class="cls-11" cx="217.3" cy="173.8" rx="6.46" ry="2.34"/><ellipse class="cls-10" cx="364.73" cy="284.42" rx="1.8" ry="4.97" transform="matrix(0.16, -0.99, 0.99, 0.16, -119.07, 488.43)"/><circle class="cls-12" cx="217.3" cy="189.9" r="16.1"/><path class="cls-13" d="M378.57,300.21a16.29,16.29,0,0,1-5.95,13c-2.89,2.37-7.75,4.52-9.28,2.95-1.79-1.84,3.5-6.53,3.76-14.87.31-10-5.24-15.72-3.76-17C365.33,282.61,378.05,289.55,378.57,300.21Z" transform="translate(-145.18 -111.03)"/><path class="cls-4" d="M378.58,300.93c-1.12.69-4.48-2.69-6-1.54-.36.27-.43.65-1,.9a3.08,3.08,0,0,1-2.46-.29c-3.17-1.47-3.65-2.56-5.53-3.19s-4.85-.62-6.22.88c-.91,1-.66,2.1-1.57,2.47s-1.82-.78-3.35-1.14c-3.08-.71-5.4,2.85-6.39,2.21-1.19-.76,0-7.23,4.48-11.61a17.76,17.76,0,0,1,11.92-4.8c1.38,0,7.41-.14,12,4.26S379.89,300.13,378.58,300.93Z" transform="translate(-145.18 -111.03)"/><path class="cls-8" d="M378.58,300.93c-1.12.69-4.48-2.69-6-1.54-.36.27-.43.65-1,.9a3.08,3.08,0,0,1-2.46-.29c-3.09-1.43-4.67-2.06-5.53-3.19-1.27-1.69-.49-2.42-1.78-6.09-1.21-3.47-2.33-4.06-1.95-4.87.87-1.86,9.34-1.67,14.56,3.24C379,293.38,379.88,300.14,378.58,300.93Z" transform="translate(-145.18 -111.03)"/><path class="cls-16" d="M418.28,271.56c.32.39,5.53,6.83,3.45,11.35s-9.93,4.5-14.84,3.32c-11.61-2.78-12.43-13.8-21.47-14.71-7.45-.75-8.74,6.83-17.76,6.69s-11.21-7.85-19.09-6.73c-6,.85-5.92,5.42-14,7.84a28.77,28.77,0,0,1-15,.08c-8.26-1.9-8.14-5.29-16.32-8-2-.65-11.85-3.71-22.26,0-5.7,2-4.87,3.68-11.4,6-4.1,1.45-11.67,4.14-18.82,1.11-6.15-2.61-5.84-6.83-9.81-7.15-7.22-.58-9.47,13.34-19.61,14.9-4.28.66-10.27-.83-12.19-5.26-1.82-4.18.87-8.91,1.33-9.69q7-7.6,14.09-15.2l12.51-13.49,70.4-75.92Z" transform="translate(-145.18 -111.03)"/><path class="cls-17" d="M419.33,271.56c.34.39,5.75,6.83,3.58,11.35s-10.33,4.5-15.43,3.32c-12.06-2.78-12.92-13.8-22.32-14.71-7.74-.75-9.09,6.83-18.46,6.69-9.66-.15-13.76-9.18-19.84-6.73-3.25,1.31-3.08,4.23-9,7.79a18.24,18.24,0,0,1-7,2.91c-3.21.5-6.89-.58-14.12-2.77a49.41,49.41,0,0,1-5.14-1.7c-3.29-1.47-9.27-5-10.12-8.32-1.78-7,19.11-12.95,26.83-24.42,7.4-11,6.5-32.64-24.13-78.27Q361.76,219.11,419.33,271.56Z" transform="translate(-145.18 -111.03)"/><path class="cls-18" d="M308,276l-31.08-26c8.45,6.17,19.47,6.34,26.5.68,9.61-7.74,13.79-28,2.09-41.3l33,23.24a64,64,0,0,1-12,27A63.13,63.13,0,0,1,308,276Z" transform="translate(-145.18 -111.03)"/><path class="cls-4" d="M380.08,229.31c.21.25,3.64,4.31,2.27,7.17s-6.53,2.84-9.76,2.1c-7.63-1.76-8.17-8.72-14.12-9.3-4.9-.47-5.75,4.32-11.68,4.22s-7.37-5-12.55-4.26c-3.92.54-3.89,3.43-9.23,5a19.6,19.6,0,0,1-9.83.05c-5.43-1.2-5.35-3.34-10.73-5a24.58,24.58,0,0,0-14.64,0c-3.74,1.27-3.21,2.33-7.49,3.79-2.7.92-7.67,2.61-12.37.7-4.05-1.65-3.84-4.32-6.45-4.52-4.75-.37-6.23,8.43-12.9,9.42-2.82.42-6.75-.53-8-3.32-1.2-2.64.57-5.63.87-6.12l9.27-9.6q4.11-4.26,8.23-8.53l46.29-48Z" transform="translate(-145.18 -111.03)"/><path class="cls-8" d="M380.17,229.31c.21.25,3.64,4.31,2.27,7.17s-6.53,2.84-9.76,2.1c-7.63-1.76-8.17-8.72-14.12-9.3-4.9-.47-5.75,4.32-11.68,4.22s-7.37-5-12.55-4.26c-3,.41-3.69,2.2-6.25,3.71s-2.84,1.37-3,1.25c-1.15-1,6.74-10.68,9.15-16.19,3.95-9.06,1-25-26.92-55Z" transform="translate(-145.18 -111.03)"/><polygon class="cls-11" points="162.53 0 174.26 23.78 200.5 27.6 181.52 46.1 186 72.24 162.53 59.9 139.06 72.24 143.54 46.1 124.55 27.6 150.79 23.78 162.53 0"/><polygon class="cls-19" points="162.53 8.6 171.47 26.72 191.47 29.62 177 43.73 180.42 63.65 162.53 54.24 144.64 63.65 148.06 43.73 133.59 29.62 153.58 26.72 162.53 8.6"/><polygon class="cls-11" points="162.56 12.85 170.12 28.17 187.03 30.63 174.79 42.56 177.68 59.4 162.56 51.45 147.43 59.4 150.32 42.56 138.08 30.63 154.99 28.17 162.56 12.85"/><circle class="cls-8" cx="81.47" cy="457.98" r="7.38"/><circle class="cls-8" cx="107.7" cy="461.76" r="7.38"/><circle class="cls-8" cx="98.99" cy="483.83" r="7.38"/><circle class="cls-8" cx="78.9" cy="489.08" r="7.38"/><circle class="cls-8" cx="128.29" cy="470.78" r="7.38"/><circle class="cls-8" cx="122.42" cy="494.08" r="7.38"/><rect class="cls-20" x="217.83" y="549.75" width="61.82" height="65.45" transform="translate(-492.63 685.2) rotate(-86.6)"/><rect class="cls-21" x="240.37" y="519.79" width="19.85" height="73.31" transform="translate(-465.2 662.27) rotate(-86.6)"/><path class="cls-2" d="M286.58,568.56l-57.47-3.41,27.51-18.26,31.14,1.85Z" transform="translate(-145.18 -111.03)"/><rect class="cls-21" x="215.59" y="574.4" width="66.91" height="11.16" transform="translate(-489.86 683.16) rotate(-86.6)"/><path class="cls-2" d="M256.62,546.89l-4,66.79-7.93-.47Q250.68,580.06,256.62,546.89Z" transform="translate(-145.18 -111.03)"/><path class="cls-2" d="M231.41,557" transform="translate(-145.18 -111.03)"/><rect class="cls-21" x="242.8" y="536.21" width="34.98" height="11.16" transform="translate(-342.08 40.55) rotate(-23.86)"/><path class="cls-2" d="M241,544.15,274.6,529.3l3.21,7.27Z" transform="translate(-145.18 -111.03)"/><ellipse class="cls-21" cx="249.36" cy="547.73" rx="9.67" ry="8.79" transform="translate(-457.37 653.14) rotate(-86.6)"/><circle class="cls-8" cx="146.18" cy="466.42" r="7.38"/><circle class="cls-8" cx="172.58" cy="468.64" r="7.38"/><circle class="cls-8" cx="165.19" cy="491.19" r="7.38"/><circle class="cls-8" cx="145.45" cy="497.62" r="7.38"/><circle class="cls-8" cx="193.67" cy="476.42" r="7.38"/><circle class="cls-8" cx="189.19" cy="500.03" r="7.38"/><rect class="cls-20" x="136.32" y="447.66" width="65.45" height="61.82"/><rect class="cls-21" x="132.39" y="442.57" width="73.31" height="19.85"/><path class="cls-2" d="M351.15,573.45H293.58L320,553.6h31.19Z" transform="translate(-145.18 -111.03)"/><rect class="cls-21" x="163.61" y="442.57" width="11.16" height="66.91"/><path class="cls-2" d="M320,553.6v66.91H312Z" transform="translate(-145.18 -111.03)"/><path class="cls-2" d="M295.39,565.16" transform="translate(-145.18 -111.03)"/><rect class="cls-21" x="305.84" y="542.72" width="34.98" height="11.16" transform="translate(-360.39 97.93) rotate(-27.26)"/><path class="cls-2" d="M304.22,551.78,336.87,535l3.64,7.06Z" transform="translate(-145.18 -111.03)"/><ellipse class="cls-21" cx="167.6" cy="443.8" rx="8.79" ry="9.67"/><circle class="cls-8" cx="210.94" cy="457.2" r="7.38"/><circle class="cls-8" cx="237.34" cy="459.42" r="7.38"/><circle class="cls-8" cx="229.95" cy="481.96" r="7.38"/><circle class="cls-8" cx="210.21" cy="488.4" r="7.38"/><circle class="cls-8" cx="258.43" cy="467.2" r="7.38"/><circle class="cls-8" cx="253.95" cy="490.81" r="7.38"/><rect class="cls-20" x="201.08" y="438.43" width="65.45" height="61.82"/><rect class="cls-21" x="197.15" y="433.34" width="73.31" height="19.85"/><path class="cls-2" d="M415.91,564.23H358.34l26.38-19.85h31.19Z" transform="translate(-145.18 -111.03)"/><rect class="cls-21" x="228.38" y="433.34" width="11.16" height="66.91"/><path class="cls-2" d="M384.72,544.37v66.91h-8Z" transform="translate(-145.18 -111.03)"/><path class="cls-2" d="M360.15,555.94" transform="translate(-145.18 -111.03)"/><rect class="cls-21" x="370.6" y="533.49" width="34.98" height="11.16" transform="translate(-348.97 126.56) rotate(-27.26)"/><path class="cls-2" d="M369,542.56l32.65-16.82,3.64,7.06Z" transform="translate(-145.18 -111.03)"/><ellipse class="cls-21" cx="232.36" cy="434.58" rx="8.79" ry="9.67"/></g></svg>